<svg width="29" height="27" fill="none" xmlns="http://www.w3.org/2000/svg"><path d="M12.74 1.415c.556-1.704 2.966-1.704 3.52 0l1.979 6.09a1.85 1.85 0 001.757 1.277h6.405c1.793 0 2.536 2.294 1.088 3.348l-5.18 3.763a1.85 1.85 0 00-.674 2.069l1.98 6.09c.555 1.704-1.397 3.122-2.85 2.068l-5.18-3.763a1.85 1.85 0 00-2.173 0l-5.18 3.763c-1.45 1.054-3.4-.364-2.847-2.068l1.98-6.09a1.85 1.85 0 00-.674-2.069l-5.178-3.76C.064 11.077.81 8.782 2.601 8.782h6.403a1.85 1.85 0 001.759-1.276l1.98-6.09-.002-.002z" fill="#fff"/></svg>